<svg xmlns="http://www.w3.org/2000/svg" xmlns:xlink="http://www.w3.org/1999/xlink" version="1.2" width="65.41mm" height="13.89mm" viewBox="8.5358 -0.0014 37.2233 7.9032">
<style type="text/css">
<![CDATA[
tspan { white-space: pre; }
]]>
</style>
<g transform="translate(8.5358, 6.3517)">
<line stroke-linejoin="round" stroke-linecap="round" stroke-width="0.1000" stroke="currentColor" x1="0.0500" y1="0" x2="37.1733" y2="0"/>
</g>
<g transform="translate(8.5358, 5.3517)">
<line stroke-linejoin="round" stroke-linecap="round" stroke-width="0.1000" stroke="currentColor" x1="0.0500" y1="0" x2="37.1733" y2="0"/>
</g>
<g transform="translate(8.5358, 4.3517)">
<line stroke-linejoin="round" stroke-linecap="round" stroke-width="0.1000" stroke="currentColor" x1="0.0500" y1="0" x2="37.1733" y2="0"/>
</g>
<g transform="translate(8.5358, 3.3517)">
<line stroke-linejoin="round" stroke-linecap="round" stroke-width="0.1000" stroke="currentColor" x1="0.0500" y1="0" x2="37.1733" y2="0"/>
</g>
<g transform="translate(8.5358, 2.3517)">
<line stroke-linejoin="round" stroke-linecap="round" stroke-width="0.1000" stroke="currentColor" x1="0.0500" y1="0" x2="37.1733" y2="0"/>
</g>
<g transform="translate(24.6349, 4.3517)">
<rect x="0.0000" y="-2.0000" width="0.1900" height="4.0000" ry="0.0000" fill="currentColor"/>
</g>
<g transform="translate(45.1592, 4.3517)">
<rect x="0.0000" y="-2.0000" width="0.6000" height="4.0000" ry="0.0000" fill="currentColor"/>
</g>
<g transform="translate(44.6692, 4.3517)">
<rect x="0.0000" y="-2.0000" width="0.1900" height="4.0000" ry="0.0000" fill="currentColor"/>
</g>
<g transform="translate(34.4558, 4.3517)">
<rect x="0.0000" y="-2.0000" width="0.1900" height="4.0000" ry="0.0000" fill="currentColor"/>
</g>
<g transform="translate(0.0000, 1.3517)">
<rect x="41.8389" y="-0.1000" width="1.9563" height="0.2000" ry="0.1000" fill="currentColor"/>
</g>
<g transform="translate(35.7716, 4.3517)">
<rect x="-0.0650" y="-0.8138" width="0.1300" height="3.3138" ry="0.0400" fill="currentColor"/>
</g>
<a style="color:inherit;" xlink:href="textedit:///home/spetrovi/git/hubgit/songbook/app/static/images/lilypond_help/source.lytex:9:23:24">
<g transform="translate(39.6608, 4.3517)">
<path stroke-width="0.0800" stroke-linejoin="round" stroke-linecap="round" stroke="currentColor" fill="currentColor" d="M0.5670 -3.5450C1.1092 -4.3179 2.2737 -4.5504 3.0712 -4.0450L3.0712 -4.0450C2.2972 -4.4327 1.1327 -4.2002 0.5670 -3.5450z"/>
</g>
</a>
<a style="color:inherit;" xlink:href="textedit:///home/spetrovi/git/hubgit/songbook/app/static/images/lilypond_help/source.lytex:9:18:19">
<g transform="translate(35.7066, 3.3517)">
<path transform="scale(0.0040, -0.0040)" d="M218 136c66 0 108 -36 108 -89c0 -89 -113 -183 -218 -183c-66 0 -108 36 -108 89c0 89 113 183 218 183z" fill="currentColor"/>
</g>
</a>
<g transform="translate(32.0816, 7.3117)">
<path transform="scale(0.0040, -0.0040)" d="M0 0h-16v375h16v-375zM0 0v250c97 59 224 148 224 259c0 57 -15 112 -40 163c-3 16 10 27 23 27c7 0 15 -3 20 -11c25 -56 40 -117 40 -179c0 -203 -267 -306 -267 -509z" fill="currentColor"/>
</g>
<g transform="translate(32.0166, 4.3517)">
<rect x="-0.0650" y="-0.3138" width="0.1300" height="3.3138" ry="0.0400" fill="currentColor"/>
</g>
<a style="color:inherit;" xlink:href="textedit:///home/spetrovi/git/hubgit/songbook/app/static/images/lilypond_help/source.lytex:9:14:15">
<g transform="translate(31.9516, 3.8517)">
<path transform="scale(0.0040, -0.0040)" d="M218 136c66 0 108 -36 108 -89c0 -89 -113 -183 -218 -183c-66 0 -108 36 -108 89c0 89 113 183 218 183z" fill="currentColor"/>
</g>
</a>
<a style="color:inherit;" xlink:href="textedit:///home/spetrovi/git/hubgit/songbook/app/static/images/lilypond_help/source.lytex:9:8:9">
<g transform="translate(25.7249, 4.3517)">
<path stroke-width="0.0800" stroke-linejoin="round" stroke-linecap="round" stroke="currentColor" fill="currentColor" d="M1.6042 -0.4941C2.5737 -1.6391 5.4184 -2.1868 6.7977 -1.4941L6.7977 -1.4941C5.4411 -2.0690 2.5963 -1.5212 1.6042 -0.4941z"/>
</g>
</a>
<g transform="translate(42.2950, 4.8117)">
<path transform="scale(0.0040, -0.0040)" d="M0 0h-16v375h16v-375zM0 0v250c97 59 224 148 224 259c0 57 -15 112 -40 163c-3 16 10 27 23 27c7 0 15 -3 20 -11c25 -56 40 -117 40 -179c0 -203 -267 -306 -267 -509z" fill="currentColor"/>
</g>
<g transform="translate(42.2300, 4.3517)">
<rect x="-0.0650" y="-2.8138" width="0.1300" height="3.3138" ry="0.0400" fill="currentColor"/>
</g>
<a style="color:inherit;" xlink:href="textedit:///home/spetrovi/git/hubgit/songbook/app/static/images/lilypond_help/source.lytex:9:25:26">
<g transform="translate(42.1650, 1.3517)">
<path transform="scale(0.0040, -0.0040)" d="M218 136c66 0 108 -36 108 -89c0 -89 -113 -183 -218 -183c-66 0 -108 36 -108 89c0 89 113 183 218 183z" fill="currentColor"/>
</g>
</a>
<g transform="translate(39.7908, 5.3117)">
<path transform="scale(0.0040, -0.0040)" d="M0 0h-16v375h16v-375zM0 0v250c97 59 224 148 224 259c0 57 -15 112 -40 163c-3 16 10 27 23 27c7 0 15 -3 20 -11c25 -56 40 -117 40 -179c0 -203 -267 -306 -267 -509z" fill="currentColor"/>
</g>
<g transform="translate(39.7258, 4.3517)">
<rect x="-0.0650" y="-2.3138" width="0.1300" height="3.3138" ry="0.0400" fill="currentColor"/>
</g>
<a style="color:inherit;" xlink:href="textedit:///home/spetrovi/git/hubgit/songbook/app/static/images/lilypond_help/source.lytex:9:21:22">
<g transform="translate(39.6608, 1.8517)">
<path transform="scale(0.0040, -0.0040)" d="M218 136c66 0 108 -36 108 -89c0 -89 -113 -183 -218 -183c-66 0 -108 36 -108 89c0 89 113 183 218 183z" fill="currentColor"/>
</g>
</a>
<g transform="translate(21.9690, 4.3517)">
<rect x="-0.0650" y="-2.5000" width="0.1300" height="3.3138" ry="0.0400" fill="currentColor"/>
</g>
<a style="color:inherit;" xlink:href="textedit:///home/spetrovi/git/hubgit/songbook/app/static/images/lilypond_help/source.lytex:9:3:4">
<g transform="translate(20.7298, 5.3517)">
<path transform="scale(0.0040, -0.0040)" d="M218 136c66 0 108 -36 108 -89c0 -89 -113 -183 -218 -183c-66 0 -108 36 -108 89c0 89 113 183 218 183z" fill="currentColor"/>
</g>
</a>
<g transform="translate(18.2648, 4.3517)">
<rect x="-0.0650" y="-3.0000" width="0.1300" height="3.3138" ry="0.0400" fill="currentColor"/>
</g>
<a style="color:inherit;" xlink:href="textedit:///home/spetrovi/git/hubgit/songbook/app/static/images/lilypond_help/source.lytex:7:2:3">
<g transform="translate(13.4891, 4.3517)">
<path transform="scale(0.0040, -0.0040)" d="M229 0c-88 0 -90 66 -144 66c-30 0 -59 -20 -62 -55c-1 -7 -6 -11 -11 -11c-6 0 -12 4 -12 11c0 154 232 170 232 344c0 59 -16 122 -67 122c-25 0 -49 -14 -49 -37c0 -27 35 -41 35 -68c0 -38 -31 -69 -69 -69s-69 31 -69 69c0 76 72 128 152 128c95 0 183 -57 183 -145
c0 -151 -150 -159 -246 -220c9 2 18 3 27 3c83 0 111 -59 171 -59c48 0 38 38 55 38c6 0 12 -5 12 -12c0 -22 -44 -105 -138 -105z" fill="currentColor"/>
</g>
<g transform="translate(13.4208, 6.3678)">
<path transform="scale(0.0040, -0.0040)" d="M196 117h117c0 -48 27 -94 72 -94c8 0 12 -5 12 -11s-4 -12 -12 -12c-44 0 -87 13 -131 13s-87 -13 -131 -13c-8 0 -12 6 -12 12s4 11 12 11c45 0 73 46 73 94zM-2 148c0 12 140 143 140 336c0 10 7 19 16 16c23 -7 47 -13 71 -13s48 6 71 13c14 4 23 -9 17 -16
l-284 -330h167v131c0 34 34 27 68 72c22 30 23 56 36 56c6 0 13 -5 13 -14v-245h72c10 0 15 -7 15 -14s-5 -15 -15 -15h-72v-8h-117v8h-167c-23 0 -31 14 -31 23z" fill="currentColor"/>
</g>
</a>
<a style="color:inherit;" xlink:href="textedit:///home/spetrovi/git/hubgit/songbook/app/static/images/lilypond_help/source.lytex:5:2:3">
</a>
<g transform="translate(9.3358, 5.3517)">
<path transform="scale(0.0040, -0.0040)" d="M266 -635h-6c-108 0 -195 88 -195 197c0 58 53 103 112 103c54 0 95 -47 95 -103c0 -52 -43 -95 -95 -95c-11 0 -21 2 -31 6c26 -39 68 -65 117 -65h4zM461 -203c68 24 113 90 113 164c0 90 -66 179 -173 190c19 -89 48 -242 60 -354zM74 28c0 -145 141 -247 264 -247
c1 0 47 0 82 6c-7 64 -29 203 -63 364c-79 -8 -124 -61 -124 -119c0 -44 25 -91 81 -123c5 -5 7 -10 7 -15c0 -11 -10 -22 -22 -22c-15 0 -126 62 -126 187c0 88 58 174 160 197c-14 58 -29 117 -46 175c-107 -121 -213 -243 -213 -403zM250 553c-29 96 -52 170 -52 346
c0 115 55 224 149 292c6 5 14 5 20 0c68 -80 133 -245 133 -358c0 -143 -86 -255 -180 -364c21 -68 39 -138 56 -207c2 0 7 1 13 1c155 0 256 -128 256 -261c0 -113 -74 -212 -180 -246c3 -35 5 -70 5 -105c0 -19 -1 -39 -2 -58c-7 -119 -88 -225 -202 -228l1 43
c93 2 153 92 159 191c1 18 2 37 2 55c0 31 -1 61 -4 92c-5 -1 -44 -8 -89 -8c-193 0 -333 180 -333 374c0 177 131 306 248 441zM428 916c0 34 1 66 -20 129c-99 -48 -162 -149 -162 -259c0 -52 12 -115 36 -194c80 97 146 198 146 324z" fill="currentColor"/>
</g>
<a style="color:inherit;" xlink:href="textedit:///home/spetrovi/git/hubgit/songbook/app/static/images/lilypond_help/source.lytex:9:0:1">
<g transform="translate(17.0256, 4.8517)">
<path transform="scale(0.0040, -0.0040)" d="M218 136c66 0 108 -36 108 -89c0 -89 -113 -183 -218 -183c-66 0 -108 36 -108 89c0 89 113 183 218 183z" fill="currentColor"/>
</g>
</a>
<g transform="translate(29.5774, 7.6867)">
<path transform="scale(0.0040, -0.0040)" d="M0 0h-16v375h16v-375zM0 0v250c97 59 224 148 224 259c0 57 -15 112 -40 163c-3 16 10 27 23 27c7 0 15 -3 20 -11c25 -56 40 -117 40 -179c0 -203 -267 -306 -267 -509z" fill="currentColor"/>
</g>
<g transform="translate(29.5124, 4.3517)">
<rect x="-0.0650" y="0.1862" width="0.1300" height="3.1888" ry="0.0400" fill="currentColor"/>
</g>
<a style="color:inherit;" xlink:href="textedit:///home/spetrovi/git/hubgit/songbook/app/static/images/lilypond_help/source.lytex:9:10:11">
<g transform="translate(29.4474, 4.3517)">
<path transform="scale(0.0040, -0.0040)" d="M218 136c66 0 108 -36 108 -89c0 -89 -113 -183 -218 -183c-66 0 -108 36 -108 89c0 89 113 183 218 183z" fill="currentColor"/>
</g>
</a>
<g transform="translate(26.9641, 4.3517)">
<rect x="-0.0650" y="-3.0000" width="0.1300" height="3.3138" ry="0.0400" fill="currentColor"/>
</g>
<a style="color:inherit;" xlink:href="textedit:///home/spetrovi/git/hubgit/songbook/app/static/images/lilypond_help/source.lytex:9:6:7">
<g transform="translate(25.7249, 4.8517)">
<path transform="scale(0.0040, -0.0040)" d="M218 136c66 0 108 -36 108 -89c0 -89 -113 -183 -218 -183c-66 0 -108 36 -108 89c0 89 113 183 218 183z" fill="currentColor"/>
</g>
</a>
</svg>
